<svg width="38" height="38" viewBox="0 0 38 38" fill="none" xmlns="http://www.w3.org/2000/svg">
<path d="M15.6118 28.4999C15.3947 28.4992 15.1801 28.4539 14.9812 28.3667C14.7824 28.2796 14.6036 28.1524 14.456 27.9933L6.76097 19.8074C6.47332 19.5009 6.31923 19.0926 6.33259 18.6725C6.34595 18.2523 6.52567 17.8547 6.83222 17.567C7.13877 17.2794 7.54702 17.1253 7.96718 17.1386C8.38734 17.152 8.78499 17.3317 9.07264 17.6383L15.596 24.5891L28.9118 10.0224C29.0469 9.85415 29.215 9.71528 29.4058 9.61434C29.5965 9.5134 29.8059 9.45252 30.0211 9.43544C30.2362 9.41837 30.4526 9.44546 30.6569 9.51504C30.8611 9.58463 31.049 9.69524 31.209 9.84009C31.369 9.98494 31.4977 10.161 31.5872 10.3574C31.6767 10.5538 31.725 10.7664 31.7294 10.9821C31.7337 11.1979 31.6938 11.4123 31.6123 11.6121C31.5307 11.8119 31.4092 11.993 31.2551 12.1441L16.7835 27.9774C16.6372 28.1395 16.4591 28.2696 16.2602 28.3595C16.0613 28.4494 15.8459 28.4972 15.6276 28.4999H15.6118Z" fill="#231F20"/>
</svg>
