<svg width="92" height="79" viewBox="0 0 92 79" fill="none" xmlns="http://www.w3.org/2000/svg">
<g clip-path="url(#clip0_2_5)">
<path d="M77.8207 35.1834L77.8538 13.8913L63.063 7.61139V71.5744L77.8207 65.2016V44.1572H72.0201V62.5014L68.8389 63.8082V41.8348H77.8207V37.512H68.8389V15.1237L72.0366 16.5048V35.1834H77.8207Z" fill="white"/>
<path d="M45.1655 79L50.9413 76.498V43.0425L54.1473 43.8476V75.1107L59.9231 72.6087V40.9058L52.3956 39.0231L59.9231 37.1404V6.28606L57.1468 5.08459L45.1655 0V36.7874V79ZM50.933 7.53089L54.1391 8.91816V34.1925L50.933 34.9976V7.53089Z" fill="white"/>
<path d="M14.2619 37.45H5.61056V22.283L8.63481 20.9824V34.979H14.2619V13.3463L0 19.5085V41.8967H8.63481V58.1228L5.6023 56.8223L5.61056 44.3616H0V59.5968L14.2702 65.7962L14.2619 37.45Z" fill="white"/>
<path d="M85.4722 51.5023L87.067 46.5788L87.571 48.1395V61.1885L91.9917 59.0766V48.0156L89.298 39.6734L91.9917 31.3312L92 19.9606L90.9341 19.4527L87.571 18.0283V31.2012L87.067 32.768L85.4722 27.8445V17.1365L81.0598 15.2538V27.9683L84.836 39.6734L81.0598 51.3723V64.0311L85.4722 62.1546V51.5023Z" fill="white"/>
<path d="M41.9512 77.749V1.33774L17.5588 11.9033V67.1896L23.4917 69.7536V14.5478L26.7886 13.0924V71.1842L32.7214 73.7544V10.5532L36.0183 9.12874V75.1788L41.9512 77.749Z" fill="white"/>
</g>
<defs>
<clipPath id="clip0_2_5">
<rect width="92" height="79" fill="white"/>
</clipPath>
</defs>
</svg>
